HIERARCHY
ROOT Hips
{
    OFFSET   0.000000   0.000000   0.000000
    CHANNELS 6 Xposition Yposition Zposition Zrotation Xrotation Yrotation
    JOINT Chest
    {
        OFFSET   0.000000   8.007230   0.000000
        CHANNELS 3 Zrotation Xrotation Yrotation
        JOINT Chest2
        {
            OFFSET   0.000000  22.077100   0.000000
            CHANNELS 3 Zrotation Xrotation Yrotation
            JOINT Neck
            {
                OFFSET   0.000000  23.254800  -0.000021
                CHANNELS 3 Zrotation Xrotation Yrotation
                JOINT Head
                {
                    OFFSET   0.000000  14.370000   1.956610
                    CHANNELS 3 Zrotation Xrotation Yrotation
                    End Site
                    {
                        OFFSET   0.000000  19.566000   0.000000
                    }
                }
            }
            JOINT LeftCollar
            {
                OFFSET   3.911900  19.017000  -0.467063
                CHANNELS 3 Zrotation Xrotation Yrotation
                JOINT LeftShoulder
                {
                    OFFSET  10.383700   0.000000   0.000000
                    CHANNELS 3 Zrotation Xrotation Yrotation
                    JOINT LeftElbow
                    {
                        OFFSET  26.662100   0.001529   0.000325
                        CHANNELS 3 Zrotation Xrotation Yrotation
                        JOINT LeftWrist
                        {
                            OFFSET  28.869000  -0.000011  -0.000096
                            CHANNELS 3 Zrotation Xrotation Yrotation
                            JOINT LeftFinger0
                            {
                                OFFSET   2.044650  -2.323460   3.252850
                                CHANNELS 3 Zrotation Xrotation Yrotation
                                JOINT LeftFinger01
                                {
                                    OFFSET   3.088130   0.000000   0.000000
                                    CHANNELS 3 Zrotation Xrotation Yrotation
                                    JOINT LeftFinger02
                                    {
                                        OFFSET   2.639460   0.000000   0.000000
                                        CHANNELS 3 Zrotation Xrotation Yrotation
                                        End Site
                                        {
                                            OFFSET   2.582190   0.000000   0.000000
                                        }
                                    }
                                }
                            }
                            JOINT LeftFinger1
                            {
                                OFFSET   8.364480   0.000000   3.252850
                                CHANNELS 3 Zrotation Xrotation Yrotation
                                JOINT LeftFinger11
                                {
                                    OFFSET   4.646930   0.000000   0.000000
                                    CHANNELS 3 Zrotation Xrotation Yrotation
                                    JOINT LeftFinger12
                                    {
                                        OFFSET   2.323460   0.000000   0.000000
                                        CHANNELS 3 Zrotation Xrotation Yrotation
                                        End Site
                                        {
                                            OFFSET   2.273050   0.000000   0.000000
                                        }
                                    }
                                }
                            }
                            JOINT LeftFinger2
                            {
                                OFFSET   8.364480   0.000016   1.078090
                                CHANNELS 3 Zrotation Xrotation Yrotation
                                JOINT LeftFinger21
                                {
                                    OFFSET   5.111620   0.000000   0.000000
                                    CHANNELS 3 Zrotation Xrotation Yrotation
                                    JOINT LeftFinger22
                                    {
                                        OFFSET   2.788160   0.000017   0.000000
                                        CHANNELS 3 Zrotation Xrotation Yrotation
                                        End Site
                                        {
                                            OFFSET   2.727660   0.000000   0.000000
                                        }
                                    }
                                }
                            }
                            JOINT LeftFinger3
                            {
                                OFFSET   7.899780   0.000015  -1.078090
                                CHANNELS 3 Zrotation Xrotation Yrotation
                                JOINT LeftFinger31
                                {
                                    OFFSET   4.646920   0.000000   0.000000
                                    CHANNELS 3 Zrotation Xrotation Yrotation
                                    JOINT LeftFinger32
                                    {
                                        OFFSET   2.323470   0.000000   0.000000
                                        CHANNELS 3 Zrotation Xrotation Yrotation
                                        End Site
                                        {
                                            OFFSET   2.273050   0.000000   0.000000
                                        }
                                    }
                                }
                            }
                            JOINT LeftFinger4
                            {
                                OFFSET   7.435090   0.000000  -3.252850
                                CHANNELS 3 Zrotation Xrotation Yrotation
                                JOINT LeftFinger41
                                {
                                    OFFSET   3.717550   0.000000   0.000000
                                    CHANNELS 3 Zrotation Xrotation Yrotation
                                    JOINT LeftFinger42
                                    {
                                        OFFSET   1.858760   0.000000   0.000000
                                        CHANNELS 3 Zrotation Xrotation Yrotation
                                        End Site
                                        {
                                            OFFSET   1.818440   0.000000   0.000000
                                        }
                                    }
                                }
                            }
                        }
                    }
                }
            }
            JOINT RightCollar
            {
                OFFSET  -3.911900  19.017000  -0.467062
                CHANNELS 3 Zrotation Xrotation Yrotation
                JOINT RightShoulder
                {
                    OFFSET -10.383700   0.000015   0.000000
                    CHANNELS 3 Zrotation Xrotation Yrotation
                    JOINT RightElbow
                    {
                        OFFSET -26.662100   0.001341   0.000385
                        CHANNELS 3 Zrotation Xrotation Yrotation
                        JOINT RightWrist
                        {
                            OFFSET -28.869000   0.000025  -0.000080
                            CHANNELS 3 Zrotation Xrotation Yrotation
                            JOINT RightFinger0
                            {
                                OFFSET  -2.044650  -2.323490   3.252850
                                CHANNELS 3 Zrotation Xrotation Yrotation
                                JOINT RightFinger01
                                {
                                    OFFSET  -3.088130   0.000000   0.000000
                                    CHANNELS 3 Zrotation Xrotation Yrotation
                                    JOINT RightFinger02
                                    {
                                        OFFSET  -2.639460   0.000000   0.000000
                                        CHANNELS 3 Zrotation Xrotation Yrotation
                                        End Site
                                        {
                                            OFFSET  -2.582190   0.000000   0.000000
                                        }
                                    }
                                }
                            }
                            JOINT RightFinger1
                            {
                                OFFSET  -8.364480   0.000000   3.252850
                                CHANNELS 3 Zrotation Xrotation Yrotation
                                JOINT RightFinger11
                                {
                                    OFFSET  -4.646930   0.000000   0.000000
                                    CHANNELS 3 Zrotation Xrotation Yrotation
                                    JOINT RightFinger12
                                    {
                                        OFFSET  -2.323470   0.000000   0.000000
                                        CHANNELS 3 Zrotation Xrotation Yrotation
                                        End Site
                                        {
                                            OFFSET  -2.273050   0.000000   0.000000
                                        }
                                    }
                                }
                            }
                            JOINT RightFinger2
                            {
                                OFFSET  -8.364480   0.000000   1.078090
                                CHANNELS 3 Zrotation Xrotation Yrotation
                                JOINT RightFinger21
                                {
                                    OFFSET  -5.111610   0.000000   0.000000
                                    CHANNELS 3 Zrotation Xrotation Yrotation
                                    JOINT RightFinger22
                                    {
                                        OFFSET  -2.788160   0.000000   0.000000
                                        CHANNELS 3 Zrotation Xrotation Yrotation
                                        End Site
                                        {
                                            OFFSET  -2.727660   0.000000   0.000000
                                        }
                                    }
                                }
                            }
                            JOINT RightFinger3
                            {
                                OFFSET  -7.899780   0.000000  -1.078090
                                CHANNELS 3 Zrotation Xrotation Yrotation
                                JOINT RightFinger31
                                {
                                    OFFSET  -4.646920   0.000000   0.000000
                                    CHANNELS 3 Zrotation Xrotation Yrotation
                                    JOINT RightFinger32
                                    {
                                        OFFSET  -2.323470   0.000000   0.000000
                                        CHANNELS 3 Zrotation Xrotation Yrotation
                                        End Site
                                        {
                                            OFFSET  -2.273050   0.000000   0.000000
                                        }
                                    }
                                }
                            }
                            JOINT RightFinger4
                            {
                                OFFSET  -7.435090   0.000000  -3.252850
                                CHANNELS 3 Zrotation Xrotation Yrotation
                                JOINT RightFinger41
                                {
                                    OFFSET  -3.717550   0.000000   0.000000
                                    CHANNELS 3 Zrotation Xrotation Yrotation
                                    JOINT RightFinger42
                                    {
                                        OFFSET  -1.858770   0.000000   0.000000
                                        CHANNELS 3 Zrotation Xrotation Yrotation
                                        End Site
                                        {
                                            OFFSET  -1.818440   0.000000   0.000000
                                        }
                                    }
                                }
                            }
                        }
                    }
                }
            }
        }
    }
    JOINT LeftHip
    {
        OFFSET   9.783010   0.000000   0.000000
        CHANNELS 3 Zrotation Xrotation Yrotation
        JOINT LeftKnee
        {
            OFFSET   0.000070 -41.789100   0.000028
            CHANNELS 3 Zrotation Xrotation Yrotation
            JOINT LeftAnkle
            {
                OFFSET   0.000087 -41.133200  -0.000100
                CHANNELS 3 Zrotation Xrotation Yrotation
                JOINT LeftToe
                {
                    OFFSET   0.000000  -6.358960  14.674500
                    CHANNELS 3 Zrotation Xrotation Yrotation
                    End Site
                    {
                        OFFSET   0.000000   0.000000   3.913200
                    }
                }
            }
        }
    }
    JOINT RightHip
    {
        OFFSET  -9.783020   0.000000   0.000000
        CHANNELS 3 Zrotation Xrotation Yrotation
        JOINT RightKnee
        {
            OFFSET   0.000044 -41.789100  -0.000870
            CHANNELS 3 Zrotation Xrotation Yrotation
            JOINT RightAnkle
            {
                OFFSET  -0.000090 -41.133200  -0.000245
                CHANNELS 3 Zrotation Xrotation Yrotation
                JOINT RightToe
                {
                    OFFSET   0.000000  -6.358960  14.674500
                    CHANNELS 3 Zrotation Xrotation Yrotation
                    End Site
                    {
                        OFFSET   0.000000   0.000000   3.913200
                    }
                }
            }
        }
    }
}
MOTION
Frames: 6
Frame Time:   0.016667
 -0.333027  90.048600   0.087835  -1.843340 -12.047900  -7.684620   0.194591   7.109420  -0.742358   0.489021  14.215700  -1.527120   3.109810   1.042610  -0.056148   5.112070   2.095570  10.315500  -1.577350  -0.806250   3.959390 -47.782600 -13.348100 -30.813100  16.708700 -13.628400 -77.189100  -1.423430  15.790600   7.492870  39.524000  21.893100 -59.997800  -1.113300   0.005200   0.008893   4.443340   0.003009   0.005658  -7.473530  -0.071984   0.507743  -6.113670   0.001504   0.010743  -4.279580  -0.002815   0.004751 -15.912700  -0.146127   0.491402 -15.911800  -0.008675   0.002623 -10.597200  -0.006489   0.012224 -10.380500  -0.097511   0.503347 -10.379400  -0.001117   0.002978  -6.912670  -0.004910   0.000459 -14.966200  -1.313330   4.907960 -22.534200  -0.006681   0.003481 -15.007700  -0.006308   0.009317   4.508580  -1.627680   4.096660  41.794800 -13.747800  26.593500 -19.995200 -17.633600  69.241400   1.115810  21.749300  -2.765410 -42.499500  27.508400  64.483300  -9.980360   0.002865  -0.002115  -9.990210   0.008950   0.000322   8.642210  -0.454311  -3.034750   7.080860   0.000203  -0.000433   4.956610   0.000163  -0.013325   7.107610  -0.648269  -5.184540   7.136610  -0.001331  -0.003644   4.753000  -0.001365  -0.002642   6.414640  -0.585310  -5.234060   6.442010  -0.012833  -0.005697   4.290370  -0.001387  -0.003906  15.898200  -1.444640  -5.064130  23.943900  -0.002495  -0.005376  15.946700  -0.002779  -0.013992  -0.117345  13.361800   2.847220   0.235966   2.481530  12.686800  -4.940510  -5.011410   5.106050   0.000000   0.000000  -0.000000   2.207570  13.233700  -8.602610   0.321384   1.999940  -4.287040 -11.361300  -0.048837   4.382950   0.000000   0.000000   0.000000
 -0.336442  90.049200   0.087773  -1.826180 -12.027100  -7.648610   0.192062   7.083850  -0.722096   0.480455  14.164700  -1.485540   3.095970   1.023120  -0.055311   5.090780   2.056380  10.231100  -1.626730  -0.806672   3.934410 -48.027800 -12.982400 -30.772000  16.820900 -13.731100 -77.040500  -1.427170  15.770000   7.413730  39.769100  22.421100 -60.450600  -1.001470   0.005319   0.009189   4.499260   0.002994   0.005678  -7.847170  -0.014764   0.081889  -6.417720   0.001527   0.011228  -4.492400  -0.003166   0.004829 -16.304300  -0.026904   0.078610 -16.300900  -0.008775   0.002661 -10.856400  -0.006607   0.012308 -10.684900  -0.018934   0.080309 -10.681600  -0.001125   0.003116  -7.113920  -0.004995   0.001735 -15.429200  -1.370120   4.962800 -23.233800  -0.007212   0.007233 -15.473700  -0.006502   0.010543   4.572940  -1.504160   4.123820  42.017000 -13.699600  26.564400 -19.974200 -17.697500  69.298100   0.865795  21.745300  -2.694630 -42.450100  27.599500  64.686800  -9.663810   0.007368  -0.002107  -9.831900   0.009057   0.000290   9.629330  -0.416143  -2.521890   7.885560   0.000331  -0.000395   5.519900   0.000244  -0.013486   8.281190  -0.748552  -5.131030   8.314170  -0.001269  -0.003797   5.537230  -0.001287  -0.002650   7.369220  -0.689443  -5.368420   7.402770  -0.013699  -0.016252   4.930240  -0.004192  -0.010937  16.699100  -1.553750  -5.178420  25.156000  -0.005166  -0.014167  16.753900  -0.006265  -0.014122  -0.121589  13.318300   2.834860   0.243833   2.507620  12.668500  -4.945720  -5.011580   5.106430   0.000000   0.000000  -0.000000   2.197390  13.226100  -8.590190   0.338559   1.967260  -4.324850 -11.365100  -0.037736   4.384450  -0.000000   0.000000  -0.000000
 -0.339991  90.047900   0.084090  -1.808100 -11.996600  -7.613660   0.187754   7.055500  -0.705498   0.468384  14.108200  -1.450840   3.079550   1.003920  -0.053865   5.063720   2.018030  10.163100  -1.669230  -0.830404   3.943810 -48.210500 -12.370600 -30.643700  17.005200 -14.037600 -76.826200  -1.256140  15.725400   7.252070  39.948400  22.890200 -60.854200  -1.013440   0.005454   0.009388   4.493280   0.002979   0.005703  -8.524450   0.077780  -0.502295  -6.971060   0.001556   0.011619  -4.879740  -0.003505   0.005087 -16.922500   0.149433  -0.486779 -16.915200  -0.008852   0.008078 -11.265600  -0.006693   0.012388 -11.189000   0.098532  -0.499618 -11.184300  -0.001116   0.007710  -7.448740  -0.005083   0.005621 -15.978400  -1.448860   5.068550 -24.065900  -0.007785   0.014386 -16.027900  -0.006602   0.011733   4.642360  -1.361100   4.157120  42.202100 -13.522500  26.536700 -19.914200 -17.942200  69.264800   0.581108  21.630900  -2.554830 -42.452600  27.641700  64.754200  -8.786140   0.010855  -0.002116  -9.393080   0.009110   0.000277  10.568200  -0.361208  -1.896270   8.648750  -0.004387  -0.005459   6.054140  -0.003390  -0.013717  10.061300  -0.899494  -5.062390  10.100300  -0.001221  -0.003887   6.726800  -0.001193  -0.002656   8.924640  -0.883853  -5.628160   8.964400  -0.014710  -0.031090   5.970290  -0.008828  -0.020046  17.848200  -1.748470  -5.433810  26.898800  -0.013814  -0.023998  17.914600  -0.014160  -0.014446  -0.121411  13.256600   2.823330   0.246292   2.542370  12.650600  -4.951080  -5.011260   5.106950  -0.000000   0.000000   0.000000   2.196830  13.206500  -8.577880   0.346337   1.934790  -4.367660 -11.372300  -0.024995   4.385850   0.000000   0.000000   0.000000
 -0.343441  90.044700   0.074518  -1.784910 -11.947500  -7.577520   0.179898   7.020410  -0.697185   0.451768  14.038100  -1.433100   3.058470   0.986940  -0.052204   5.028750   1.984170  10.122700  -1.714650  -0.889008   3.972090 -48.340000 -11.543200 -30.395600  17.303700 -14.508100 -76.515100  -0.847432  15.523600   7.003000  40.051500  23.309000 -61.298300  -1.097250   0.005589   0.009783   4.451380   0.002962   0.005731  -9.452280   0.186978  -1.100130  -7.731180   0.001588   0.012259  -5.411820  -0.003829   0.005956 -17.810100   0.343960  -1.059600 -17.808300  -0.009126   0.014489 -11.860400  -0.006999   0.012430 -11.955700   0.234900  -1.095250 -11.952500  -0.001106   0.014762  -7.960390  -0.005173   0.010098 -16.664000  -1.552680   5.202680 -25.105100  -0.008399   0.021826 -16.720000  -0.006911   0.013036   4.722780  -1.216040   4.208070  42.426600 -13.192400  26.486400 -19.872400 -18.326400  69.098500   0.038277  21.311300  -2.246530 -42.502400  27.758100  64.904900  -7.663200   0.018304  -0.002182  -8.831630   0.009271   0.000241  11.691200  -0.274757  -1.209150   9.562270  -0.011972  -0.013087   6.693600  -0.009564  -0.013862  11.863000  -1.049910  -4.986670  11.907600  -0.001199  -0.004178   7.930450  -0.001137  -0.002677  10.963100  -1.132710  -5.848430  11.021600  -0.015301  -0.040849   7.340390  -0.012767  -0.025927  19.163000  -1.957770  -5.621830  28.890000  -0.024492  -0.033379  19.240700  -0.023128  -0.014795  -0.120888  13.170300   2.813000   0.246382   2.580300  12.629600  -4.956980  -5.009080   5.107360   0.000000   0.000000   0.000000   2.193430  13.161300  -8.569540   0.351191   1.907220  -4.410370 -11.380800  -0.015669   4.387350  -0.000000   0.000000   0.000000
 -0.348923  90.039000   0.060093  -1.752800 -11.869900  -7.541610   0.167273   6.973650  -0.698256   0.425910  13.944700  -1.433590   3.032630   0.976901  -0.050632   4.986090   1.964330  10.114900  -1.769530  -0.983233   4.022430 -48.378400 -10.404900 -30.011500  17.655300 -15.187000 -76.007100  -0.162019  15.022900   6.626070  39.928100  23.529000 -61.776200  -1.602580   0.005650   0.010228   4.198710   0.002941   0.005746 -10.664100   0.292460  -1.535310  -8.725220   0.001621   0.012876  -6.107650  -0.004132   0.007175 -19.044100   0.498330  -1.443700 -19.119300  -0.009525   0.015174 -12.733500  -0.007443   0.010520 -13.105000   0.378126  -1.612990 -13.105300  -0.001111   0.017198  -8.728160  -0.005219   0.011578 -17.517400  -1.684700   5.348690 -26.397700  -0.008726   0.024113 -17.580900  -0.007747   0.013818   4.818410  -1.084820   4.294350  42.782500 -12.704800  26.339800 -19.834900 -18.755900  68.852800  -1.025780  20.805300  -1.620390 -42.560400  28.265600  65.574400  -6.729370   0.037424  -0.011343  -8.364700   0.017825  -0.003775  13.103300  -0.145911  -0.549874  10.713500  -0.018719  -0.016474   7.499430  -0.015279  -0.013115  12.894900  -1.139890  -4.937900  12.937100  -0.005291  -0.011416   8.616070  -0.004621  -0.006841  13.529500  -1.425800  -5.899770  13.690800  -0.014807  -0.036815   9.118120  -0.013353  -0.022678  20.395700  -2.101910  -5.630460  30.747900  -0.031575  -0.037534  20.478100  -0.028856  -0.015011  -0.122011  13.052800   2.804390   0.243162   2.614660  12.603500  -4.964610  -5.000910   5.107720   0.000000   0.000000   0.000000   2.180500  13.075800  -8.568840   0.355611   1.896600  -4.446470 -11.390300  -0.014372   4.389290  -0.000000   0.000000  -0.000000
 -0.352409  90.033400   0.040242  -1.712210 -11.765000  -7.501330   0.151567   6.918390  -0.701794   0.393569  13.834300  -1.438080   3.000710   0.965809  -0.049024   4.933680   1.942460  10.112900  -1.845650  -1.090390   4.085400 -48.462700  -9.211680 -29.558000  17.936000 -15.847400 -75.457100   0.641478  14.111600   6.211570  39.710400  23.731000 -62.332600  -2.570310   0.005825   0.011955   3.714840   0.002920   0.005792 -12.033800   0.402334  -1.877740  -9.848650   0.001655   0.015210  -6.894050  -0.004410   0.010340 -20.618600   0.667892  -1.768730 -20.672100  -0.011263   0.015860 -13.767600  -0.009379   0.008610 -14.552200   0.501790  -1.885080 -14.560400  -0.001116   0.023876  -9.697230  -0.005357   0.015205 -18.583800  -1.850410   5.514380 -28.013900  -0.009752   0.029161 -18.657300  -0.012372   0.016379   4.932970  -0.974423   4.399430  43.235400 -12.099500  26.078500 -19.869500 -19.199200  68.555200  -2.459080  20.068700  -0.801459 -42.469800  28.753000  66.380800  -5.265700   0.056962  -0.028362  -7.632850   0.029638  -0.011671  14.928100   0.029292   0.105920  12.205300  -0.022600  -0.020915   8.543690  -0.020073  -0.012368  13.969300  -1.212900  -4.850850  14.017900  -0.011941  -0.025506   9.335920  -0.010957  -0.015167  16.367200  -1.728260  -5.907870  16.528800  -0.014313  -0.032781  11.008200  -0.013939  -0.019429  21.854300  -2.248070  -5.632160  32.947900  -0.039961  -0.043262  21.943300  -0.036077  -0.015192  -0.126173  12.903800   2.796320   0.239933   2.650110  12.571900  -4.972610  -4.989230   5.108270  -0.000000   0.000000   0.000000   2.161440  12.953500  -8.571420   0.363282   1.894990  -4.472960 -11.398900  -0.013664   4.390490   0.000000   0.000000  -0.000000
